<svg width="126" height="126" viewBox="0 0 126 126" fill="none" xmlns="http://www.w3.org/2000/svg">
<g clip-path="url(#clip0_80_34)" filter="url(#filter0_dd_80_34)">
<path d="M58.6274 54.5206C59.719 55.541 61.1316 56.2401 62.7292 56.4424L76.3947 58.1727L75.5558 64.7988L85.0573 59.2695L88.7943 59.7426C92.8229 60.2527 96.5009 57.4105 97.0094 53.3942L100.3 27.4085C100.808 23.3923 97.9547 19.723 93.926 19.2129L67.8607 15.9127C63.8322 15.4026 60.1542 18.2449 59.6457 22.2611L55.6095 54.1385L58.6274 54.5206Z" fill="#F7F3F1"/>
<path d="M93.926 19.213L87.6781 18.4219C91.7068 18.932 94.5603 22.6014 94.0518 26.6175L90.7617 52.6031C90.2531 56.6194 86.5751 59.4617 82.5466 58.9516L78.8095 58.4784L76.1608 60.0198L75.5557 64.7988L85.0572 59.2695L88.7943 59.7426C92.8228 60.2527 96.5008 57.4105 97.0094 53.3942L100.3 27.4085C100.808 23.3924 97.9545 19.723 93.926 19.213Z" fill="#EFE7E3"/>
<path d="M71.4904 46.7217L72.1652 47.4255C73.235 48.5413 74.6555 49.2561 76.189 49.4503L86.8622 50.8017C87.8739 50.9298 88.7955 50.1889 88.8767 49.1604C88.9529 48.1972 90.1042 39.4827 90.2287 38.4995C90.3532 37.5164 89.6571 36.6182 88.6738 36.4937L81.4391 35.5555L82.591 33.5691C83.1814 32.5507 83.5291 31.4099 83.6068 30.2353C83.6846 29.0607 83.4904 27.884 83.0394 26.7967C82.5273 25.7319 80.9353 25.8983 80.752 27.1043C80.5137 28.9862 79.5965 30.7165 78.1726 31.97L72.8965 36.6077L71.214 36.3947L69.9315 46.5242L71.4904 46.7217Z" fill="#FFD36C"/>
<path d="M70.5667 48.2365L65.6938 47.6195C65.5391 47.5999 65.3985 47.5197 65.303 47.3964C65.2075 47.2732 65.1648 47.1171 65.1844 46.9624L66.7572 34.5403C66.7768 34.3856 66.857 34.2451 66.9803 34.1495C67.1035 34.054 67.2596 34.0113 67.4143 34.0309L72.2872 34.6479C72.3638 34.6576 72.4378 34.6823 72.5048 34.7206C72.5719 34.7588 72.6307 34.8099 72.678 34.871C72.7253 34.932 72.7602 35.0017 72.7805 35.0762C72.8009 35.1507 72.8064 35.2284 72.7967 35.305L71.2238 47.7271C71.2042 47.8817 71.1239 48.0223 71.0007 48.1178C70.8775 48.2133 70.7214 48.256 70.5667 48.2365Z" fill="#8EE6F3"/>
<path d="M56.9889 67.5445L60.3096 41.318C60.7106 38.1509 58.4604 35.2573 55.2834 34.855L34.7288 32.2525C31.5519 31.8503 28.6514 34.0917 28.2503 37.2588L25.6558 57.7507C25.2548 60.9178 27.505 63.8114 30.682 64.2137L41.9739 65.6434L41.3061 70.9177L48.805 66.5083L56.9889 67.5445Z" fill="#72D1FB"/>
<path d="M55.2835 34.8551L47.1379 33.8237C50.3148 34.2259 52.5652 37.1196 52.1642 40.2867L48.8435 66.5132L56.9891 67.5446L60.3097 41.318C60.7106 38.1509 58.4604 35.2573 55.2835 34.8551Z" fill="#62A6FD"/>
<path d="M50.3071 52.1738L46.1731 51.6504L46.9728 48.9686L50.6539 49.4347C52.1023 49.6181 52.3867 47.3725 50.9382 47.1891L47.6284 46.77L48.7202 43.1087C49.1374 41.7098 46.9684 41.0628 46.551 42.462L45.3524 46.4818L42.6437 46.1389L43.7355 42.4775C44.1526 41.0786 41.9839 40.4315 41.5663 41.8308L40.3676 45.8507L35.8624 45.2802C34.4139 45.0968 34.1296 47.3425 35.5781 47.5259L39.712 48.0493L38.9123 50.7311L35.2312 50.265C33.7828 50.0816 33.4985 52.3272 34.9469 52.5106L38.2567 52.9297L37.1649 56.591C36.7521 57.9751 38.9162 58.6389 39.3341 57.2378L40.5327 53.2179L43.2415 53.5609L42.1497 57.2222C41.7368 58.6063 43.901 59.27 44.3189 57.8689L45.5175 53.849L50.0227 54.4195C51.4712 54.6029 51.7555 52.3572 50.3071 52.1738ZM43.8971 51.3622L41.1885 51.0193L41.9882 48.3375L44.6969 48.6805L43.8971 51.3622Z" fill="#F7F3F1"/>
<path d="M68.6466 64.7633L54.0601 62.9164C51.8056 62.631 49.7472 64.2215 49.4626 66.4691L47.6214 81.0111C47.3368 83.2587 48.9338 85.3121 51.1883 85.5975L59.2015 86.6121L58.7276 90.3552L64.0493 87.2261L65.7748 87.4446C68.0293 87.73 70.0877 86.1394 70.3722 83.8918L72.2135 69.3499C72.4981 67.1023 70.9011 65.0488 68.6466 64.7633Z" fill="#FA9084"/>
<path d="M68.6463 64.7633L62.3585 63.9671C64.613 64.2526 66.21 66.306 65.9254 68.5536L64.0841 83.0957C63.7995 85.3433 61.7412 86.9338 59.4867 86.6484L59.2012 86.6122L58.7273 90.3551L64.049 87.226L65.7745 87.4445C68.029 87.7299 70.0874 86.1394 70.3719 83.8918L72.2132 69.3497C72.4978 67.1022 70.9008 65.0487 68.6463 64.7633Z" fill="#FF6CB5"/>
<path d="M59.2916 80.1215C63.0373 78.7052 65.0563 77.3521 65.3669 74.8993C65.7952 71.516 61.7578 70.1453 60.2524 72.533C59.231 69.7396 55.138 70.1667 54.7096 73.5499C54.399 76.0027 56.0171 77.8162 59.2916 80.1215Z" fill="#F7F3F1"/>
</g>
<defs>
<filter id="filter0_dd_80_34" x="-5.85533" y="-4.83896" width="135.046" height="135.046" filterUnits="userSpaceOnUse" color-interpolation-filters="sRGB">
<feFlood flood-opacity="0" result="BackgroundImageFix"/>
<feColorMatrix in="SourceAlpha" type="matrix" values="0 0 0 0 0 0 0 0 0 0 0 0 0 0 0 0 0 0 127 0" result="hardAlpha"/>
<feMorphology radius="3.6585" operator="erode" in="SourceAlpha" result="effect1_dropShadow_80_34"/>
<feOffset dy="9.75599"/>
<feGaussianBlur stdDeviation="14.634"/>
<feColorMatrix type="matrix" values="0 0 0 0 0.0627451 0 0 0 0 0.0941176 0 0 0 0 0.156863 0 0 0 0.1 0"/>
<feBlend mode="normal" in2="BackgroundImageFix" result="effect1_dropShadow_80_34"/>
<feColorMatrix in="SourceAlpha" type="matrix" values="0 0 0 0 0 0 0 0 0 0 0 0 0 0 0 0 0 0 127 0" result="hardAlpha"/>
<feMorphology radius="3.6585" operator="erode" in="SourceAlpha" result="effect2_dropShadow_80_34"/>
<feOffset dy="9.75599"/>
<feGaussianBlur stdDeviation="14.634"/>
<feColorMatrix type="matrix" values="0 0 0 0 0.0627451 0 0 0 0 0.0941176 0 0 0 0 0.156863 0 0 0 0.05 0"/>
<feBlend mode="normal" in2="effect1_dropShadow_80_34" result="effect2_dropShadow_80_34"/>
<feBlend mode="normal" in="SourceGraphic" in2="effect2_dropShadow_80_34" result="shape"/>
</filter>
<clipPath id="clip0_80_34">
<rect width="75" height="75" fill="white" transform="translate(29.175 11.0145) rotate(7.21612)"/>
</clipPath>
</defs>
</svg>
